<svg aria-hidden="true" style="position: absolute; width: 0; height: 0; overflow: hidden;" version="1.1" xmlns="http://www.w3.org/2000/svg" xmlns:xlink="http://www.w3.org/1999/xlink">
    <defs>
        <symbol id="home_icon" viewBox="0 0 32 32">
            <path d="M17.784 0.685c-0.49-0.441-1.125-0.685-1.784-0.685s-1.294 0.244-1.784 0.685l-14.216 12.795v13.867c0 1.132 0.45 2.217 1.25 3.017s1.885 1.25 3.017 1.25h23.467c1.132 0 2.217-0.45 3.017-1.25s1.25-1.885 1.25-3.017v-13.867l-14.216-12.795zM20 28.942h-8v-6.701c0-1.061 0.421-2.078 1.172-2.828s1.768-1.172 2.828-1.172 2.078 0.421 2.828 1.172c0.75 0.75 1.172 1.768 1.172 2.828v6.701zM29.333 27.342c0 0.424-0.169 0.831-0.469 1.131s-0.707 0.469-1.131 0.469h-5.067v-6.701c0-1.768-0.702-3.464-1.953-4.714s-2.946-1.953-4.714-1.953c-1.768 0-3.464 0.702-4.714 1.953s-1.953 2.946-1.953 4.714v6.701h-5.067c-0.424 0-0.831-0.169-1.131-0.469s-0.469-0.707-0.469-1.131v-12.676l13.333-12 13.333 12v12.676z"></path>
        </symbol>
        <symbol id="profile_icon" viewBox="0 0 31 32">
            <path d="M10.146 13.424v0c3.535 0 6.4-2.865 6.4-6.4s-2.865-6.4-6.4-6.4c-3.535 0-6.4 2.865-6.4 6.4v0c0.004 3.533 2.867 6.396 6.4 6.4h0zM10.146 3.018c2.213 0 4.006 1.794 4.006 4.006s-1.794 4.006-4.006 4.006v0c-2.213 0-4.006-1.794-4.006-4.006s1.794-4.006 4.006-4.006v0zM10.146 15.193v0c-5.256 0.006-9.516 4.266-9.522 9.521v0.001c0 0.661 0.536 1.197 1.197 1.197s1.197-0.536 1.197-1.197v0c0-3.937 3.191-7.128 7.128-7.128 0.907 0 1.775 0.169 2.573 0.478l-0.049-0.017 0.122 0.046 0.067-0.112 1.181-1.955-0.165-0.070c-1.1-0.482-2.381-0.763-3.728-0.765h-0.001z"></path>
            <path fill='#fff' stroke-linejoin="round" stroke-linecap="butt" stroke-miterlimit="4" stroke-width="2.1854" d="M15.298 17.639h13.893v9.99h-13.893z"></path>
            <path stroke-linejoin="miter" stroke-linecap="round" stroke-miterlimit="4" stroke-width="2.1854" d="M14.361 30.907h15.766"></path>
        </symbol>
        <symbol id="exit_icon" viewBox="0 0 28 32">
            <path d="M28 16.667c0 0.53-0.211 1.039-0.586 1.414s-0.884 0.586-1.414 0.586h-3.827c-0.805-0.002-1.596-0.212-2.297-0.609s-1.287-0.968-1.703-1.657l-1.633-2.712-2.387 5.817 3.485 1.983c0.717 0.409 1.313 1 1.728 1.713s0.633 1.524 0.633 2.349v4.449c0 0.53-0.211 1.039-0.586 1.414s-0.884 0.586-1.414 0.586-1.039-0.211-1.414-0.586c-0.375-0.375-0.586-0.884-0.586-1.414v-4.449c0-0.117-0.031-0.233-0.090-0.334s-0.144-0.186-0.246-0.244l-5.443-3.097c-0.95-0.578-1.663-1.475-2.012-2.531s-0.31-2.201 0.109-3.231l1.681-4.112h-2.352c-0.124 0-0.245 0.035-0.35 0.1s-0.19 0.158-0.246 0.269l-1.929 3.859c-0.237 0.475-0.653 0.835-1.157 1.003s-1.053 0.129-1.527-0.109c-0.475-0.237-0.835-0.653-1.003-1.157s-0.129-1.053 0.109-1.527l1.929-3.859c0.385-0.777 0.981-1.43 1.719-1.886s1.589-0.696 2.456-0.694h7.499c0.805 0.002 1.596 0.212 2.297 0.609s1.287 0.968 1.703 1.657l2.453 4.077c0.060 0.099 0.144 0.18 0.244 0.237s0.214 0.086 0.329 0.086h3.827c0.53 0 1.039 0.211 1.414 0.586s0.586 0.884 0.586 1.414zM8.076 22.467c-0.244-0.098-0.505-0.146-0.767-0.143s-0.522 0.058-0.764 0.162c-0.241 0.103-0.46 0.254-0.644 0.442s-0.328 0.41-0.426 0.654c-0.050 0.124-0.135 0.23-0.245 0.304s-0.24 0.115-0.373 0.115h-2.857c-0.53 0-1.039 0.211-1.414 0.586s-0.586 0.884-0.586 1.414 0.211 1.039 0.586 1.414c0.375 0.375 0.884 0.586 1.414 0.586h2.857c0.933 0.003 1.846-0.275 2.619-0.798s1.37-1.267 1.714-2.135c0.098-0.244 0.146-0.505 0.143-0.767s-0.058-0.522-0.162-0.764-0.254-0.46-0.442-0.644c-0.188-0.183-0.41-0.328-0.654-0.426zM16.667 6.667c0.659 0 1.304-0.196 1.852-0.562s0.975-0.887 1.228-1.496c0.252-0.609 0.318-1.279 0.19-1.926s-0.446-1.241-0.912-1.707-1.060-0.784-1.707-0.912c-0.647-0.129-1.317-0.063-1.926 0.19s-1.13 0.68-1.496 1.228c-0.366 0.548-0.562 1.193-0.562 1.852 0 0.884 0.351 1.732 0.976 2.357s1.473 0.976 2.357 0.976z"></path>
        </symbol>
        <symbol id="pet_icon" viewBox="0 0 28 32">
            <path stroke-linejoin="miter" stroke-linecap="butt" stroke-miterlimit="4" stroke-width="0.5953" d="M7.482 2.4l-0 0c-2.292 0.593-3.885 1.011-4.913 1.292-0.514 0.14-0.889 0.247-1.141 0.324-0.125 0.038-0.224 0.071-0.296 0.098-0.035 0.013-0.070 0.027-0.099 0.041-0.015 0.007-0.034 0.017-0.053 0.030-0.013 0.008-0.054 0.035-0.089 0.083-0.042 0.057-0.056 0.119-0.061 0.138l-0 0.001c-0.007 0.031-0.013 0.065-0.017 0.098-0.008 0.067-0.015 0.157-0.021 0.271-0.012 0.23-0.021 0.581-0.027 1.093-0.014 1.027-0.019 2.719-0.019 5.425v6.765l0.007 0.031 0.175 0.822c0 0 0 0 0 0.001 0.769 3.679 3.205 6.896 7.042 9.391 1.1 0.715 1.949 1.182 3.23 1.777l0 0c0.785 0.364 1.371 0.617 1.815 0.781 0.437 0.161 0.766 0.245 1.024 0.245 0.268 0 0.673-0.114 1.123-0.276 0.464-0.167 1.020-0.403 1.609-0.679 1.178-0.552 2.508-1.273 3.535-1.954l0-0c3.661-2.431 5.928-5.398 6.854-9.014v-0l0.198-0.775 0-0.037 0.020-6.902c0.010-2.864 0.012-4.598 0.002-5.629-0.005-0.514-0.013-0.858-0.025-1.080-0.006-0.11-0.013-0.198-0.022-0.264-0.005-0.033-0.011-0.067-0.019-0.099-0.006-0.024-0.022-0.079-0.062-0.132-0.031-0.042-0.067-0.068-0.082-0.078-0.019-0.013-0.038-0.023-0.053-0.031-0.030-0.015-0.064-0.029-0.098-0.043-0.069-0.027-0.164-0.059-0.284-0.096-0.241-0.075-0.603-0.178-1.109-0.316-1.012-0.276-2.612-0.695-4.999-1.31-1.752-0.454-3.361-0.865-4.542-1.163-0.59-0.149-1.074-0.269-1.415-0.352-0.17-0.041-0.306-0.074-0.403-0.096-0.048-0.011-0.088-0.020-0.118-0.026-0.015-0.003-0.030-0.006-0.044-0.008-0.007-0.001-0.016-0.002-0.026-0.003l-0.001-0c-0.005-0.001-0.029-0.003-0.057-0.001-0.023 0.002-0.042 0.005-0.046 0.006l-0.001 0c-0.013 0.002-0.027 0.005-0.041 0.008-0.030 0.006-0.069 0.015-0.117 0.027-0.096 0.023-0.232 0.056-0.402 0.098-0.34 0.084-0.822 0.206-1.41 0.355-1.176 0.299-2.778 0.711-4.523 1.161zM25.605 19.072l-0.001 0.002c-0.435 1.637-1.118 2.982-2.194 4.351l-0 0c-0.536 0.684-1.781 1.906-2.603 2.555l-0 0c-1.715 1.359-4.070 2.66-6.277 3.473l-0.002 0.001-0.449 0.168-0.693-0.259c-1.744-0.645-3.867-1.773-5.363-2.859l-0.001-0c-2.939-2.12-4.694-4.503-5.49-7.42l-0.001-0.002-0.212-0.751-0.040-13.037c0.343-0.089 2.93-0.759 5.96-1.546 1.596-0.412 3.056-0.787 4.121-1.061 0.532-0.137 0.966-0.248 1.269-0.326 0.174-0.045 0.3-0.077 0.376-0.096 0.014-0.004 0.026-0.007 0.037-0.009 0.017 0.004 0.038 0.009 0.063 0.015 0.084 0.020 0.206 0.051 0.362 0.090 0.312 0.078 0.76 0.191 1.31 0.331 1.1 0.279 2.609 0.665 4.262 1.089 0 0 0 0 0 0l5.785 1.485v13.002l-0.219 0.804z"></path>
            <path  d="M11.598 7.457c-1.288-0.123-2.181 1.109-1.874 2.589 0.129 0.628 0.419 1.098 0.91 1.483 0.886 0.689 1.94 0.403 2.528-0.688 0.284-0.53 0.323-0.986 0.132-1.681-0.234-0.872-1.001-1.64-1.696-1.703z"></path>
            <path  d="M6.9 10.746c-1.355 0.452-1.722 2.073-0.769 3.407 0.404 0.566 0.901 0.905 1.565 1.068 1.195 0.29 2.136-0.463 2.256-1.809 0.057-0.653-0.103-1.123-0.598-1.729-0.616-0.762-1.725-1.183-2.454-0.937z"></path>
            <path  d="M19.557 11.065c-0.454 0.276-1 0.95-1.197 1.481-0.097 0.277-0.122 0.541-0.086 0.924 0.105 0.947 0.567 1.579 1.3 1.772 0.903 0.236 1.832-0.158 2.479-1.036 0.574-0.785 0.717-1.76 0.363-2.508-0.193-0.396-0.742-0.833-1.193-0.947-0.452-0.122-1.175 0.016-1.666 0.315z"></path>
            <path  d="M15.344 8.327c-0.285 0.399-0.507 1.169-0.487 1.692 0.016 0.271 0.087 0.505 0.252 0.819 0.421 0.77 1.031 1.142 1.716 1.043 0.843-0.123 1.485-0.793 1.721-1.774 0.207-0.875-0.016-1.758-0.576-2.269-0.301-0.268-0.917-0.443-1.336-0.379-0.423 0.059-0.983 0.436-1.29 0.867z"></path>
            <path stroke-linejoin="miter" stroke-linecap="butt" stroke-miterlimit="4" stroke-width="0.5953" d="M19.558 22.862c-0.362 0.311-0.716 0.537-1.118 0.69s-0.836 0.226-1.35 0.251l-0.002 0c-0.367 0.016-0.609 0.020-0.877-0.021-0.262-0.040-0.541-0.121-0.986-0.255l-0.001-0c-0.565-0.172-0.879-0.244-1.161-0.242-0.277 0.002-0.549 0.074-1.029 0.253-0.275 0.102-0.477 0.167-0.729 0.203-0.244 0.034-0.524 0.040-0.953 0.040-0.436 0-0.713-0.005-0.941-0.041-0.24-0.037-0.417-0.106-0.651-0.208l-0.002-0.001c-2.14-0.953-2.911-3.169-1.831-5.171 0.392-0.729 0.909-1.273 1.676-1.767 0.232-0.152 0.359-0.25 0.467-0.369 0.11-0.122 0.21-0.277 0.368-0.559l0-0.001c0.205-0.364 0.497-0.806 0.657-0.987 0.201-0.228 0.502-0.459 0.825-0.653 0.324-0.195 0.689-0.365 1.028-0.462 1.423-0.413 3.050-0.028 4.067 0.956l0.001 0.001c0.244 0.239 0.585 0.709 0.771 1.064l0 0.001c0.211 0.406 0.397 0.625 0.59 0.756v0l0.005 0.004c1.644 1.172 2.453 2.383 2.453 3.867 0 1.059-0.414 1.911-1.28 2.653zM19.558 22.862c0 0-0 0-0 0l0-0c-0 0-0 0-0 0zM17.952 18.201l-0-0c-0.552-0.413-0.895-0.683-1.136-0.926-0.25-0.253-0.388-0.474-0.545-0.778-0.338-0.65-0.741-1.072-1.163-1.267-0.2-0.090-0.492-0.158-0.906-0.173l-0.002-0c-0.281-0.012-0.438-0.010-0.566 0.008-0.12 0.017-0.227 0.052-0.401 0.127-0.492 0.213-0.876 0.595-1.256 1.299-0.234 0.451-0.485 0.758-0.823 1.039h0l-0.005 0.004c-0.665 0.527-1.008 0.804-1.222 1.011-0.2 0.193-0.279 0.319-0.409 0.554-0.191 0.347-0.253 0.575-0.286 1-0.018 0.283-0.019 0.409 0.006 0.521s0.077 0.223 0.211 0.47l0 0c0.276 0.512 0.696 0.842 1.201 0.992 0.509 0.151 1.129 0.125 1.813-0.121l0-0c0.601-0.216 1.144-0.328 1.703-0.322 0.558 0.007 1.113 0.131 1.737 0.362 1.255 0.456 2.545-0.036 2.974-1.071 0.194-0.472 0.198-0.865 0.012-1.424-0.196-0.569-0.483-0.963-0.937-1.303z"></path>
        </symbol>
        <symbol id="paw_icon" viewBox="0 0 32 32">
            <path d="M7.269 12.872c-0.295-2.817-1.921-4.448-3.78-4.448v0.003c-0.112-0-0.224 0.006-0.336 0.017-1.995 0.205-3.42 2.197-3.111 5.183 0.299 2.856 2.025 5.040 3.921 5.040 0.086 0 0.172-0.004 0.257-0.013 1.999-0.208 3.36-2.8 3.048-5.781zM3.942 15.984c-0.779-0.655-1.154-1.573-1.249-2.635 0-0.671-0.006-1.334 0.292-1.931 0.166-0.312 0.368-0.317 0.445-0.325l0.059-0.001c0.449 0 0.994 0.768 1.129 2.056 0.092 1.003-0.050 2.034-0.676 2.836z"></path>
            <path d="M11.285 11.267c0.095 0 0.188 0 0.283-0.015 2.195-0.229 3.696-3.077 3.353-6.36-0.324-3.097-2.113-4.892-4.157-4.892-0.123 0-0.246 0.007-0.368 0.020-2.196 0.228-3.767 2.419-3.424 5.703 0.329 3.141 2.225 5.544 4.313 5.544zM9.984 3.147c0.134-0.265 0.392-0.445 0.686-0.48 0.031-0.002 0.062-0.002 0.093 0 0.618 0 1.333 0.86 1.506 2.503 0.125 0.955-0.025 1.927-0.432 2.8-0.243 0.46-0.486 0.62-0.553 0.627-0.343 0-1.445-1.085-1.662-3.155-0.139-0.784-0.012-1.592 0.361-2.295z"></path>
            <path d="M20.477 11.252c0.095 0.009 0.189 0.015 0.283 0.015 2.086 0 3.985-2.4 4.313-5.544 0.343-3.284-1.228-5.475-3.421-5.703-0.123-0.013-0.246-0.020-0.369-0.020-2.046 0-3.835 1.795-4.158 4.892-0.343 3.283 1.158 6.133 3.353 6.36zM19.776 5.168c0.171-1.641 0.882-2.501 1.506-2.501 0.031-0.002 0.061-0.002 0.092 0 0.294 0.035 0.552 0.215 0.686 0.479 0.374 0.703 0.502 1.511 0.361 2.295-0.216 2.069-1.32 3.155-1.667 3.155-0.061 0-0.305-0.167-0.548-0.627-0.407-0.873-0.556-1.845-0.43-2.8z"></path>
            <path d="M15.994 14.667c-6.054 0-11.996 6.188-12.004 12.492-0.165 4.265 3.465 5.811 7.864 4.237 2.681-0.915 5.59-0.915 8.272 0 1.033 0.349 2.11 0.552 3.199 0.604 3.856 0 4.665-2.633 4.665-4.841 0-6.304-5.942-12.492-11.996-12.492zM15.994 28c-3.004-0.476-9.629 3.777-9.33-0.841 0-4.867 4.709-9.825 9.33-9.825s9.33 4.959 9.33 9.825c0.301 4.615-6.311 0.371-9.33 0.841z"></path>
            <path d="M29.283 9.854l-0.001 0.003c-0.109-0.026-0.22-0.046-0.331-0.061-1.989-0.261-3.835 1.349-4.222 4.325-0.368 2.848 0.808 5.371 2.653 5.809 0.084 0.020 0.168 0.036 0.253 0.046 1.993 0.259 3.915-1.949 4.299-4.922 0.363-2.809-0.843-4.771-2.652-5.2zM29.292 14.711c-0.142 0.997-0.518 1.967-1.312 2.604-0.607-0.817-0.76-1.797-0.608-2.852 0.155-0.653 0.302-1.299 0.729-1.811 0.233-0.265 0.431-0.224 0.508-0.214l0.058 0.013c0.437 0.104 0.79 0.976 0.624 2.261z"></path>
        </symbol>
        <symbol id="friends_icon" viewBox="0 0 32 32">
            <path d="M10 17.333c-1.187 0-2.347-0.352-3.333-1.011s-1.756-1.596-2.21-2.693c-0.454-1.096-0.573-2.303-0.341-3.467s0.803-2.233 1.642-3.072c0.839-0.839 1.908-1.411 3.072-1.642s2.37-0.113 3.467 0.341c1.096 0.454 2.033 1.223 2.693 2.21s1.011 2.147 1.011 3.333c-0.002 1.591-0.634 3.116-1.759 4.241s-2.65 1.758-4.241 1.759zM10 8c-0.659 0-1.304 0.196-1.852 0.562s-0.975 0.887-1.228 1.496c-0.252 0.609-0.318 1.279-0.19 1.926s0.446 1.241 0.912 1.707c0.466 0.466 1.060 0.784 1.707 0.912s1.317 0.063 1.926-0.19c0.609-0.252 1.13-0.68 1.496-1.228s0.562-1.193 0.562-1.852c0-0.884-0.351-1.732-0.976-2.357s-1.473-0.976-2.357-0.976zM20 30.667v-0.667c0-2.652-1.054-5.196-2.929-7.071s-4.419-2.929-7.071-2.929c-2.652 0-5.196 1.054-7.071 2.929s-2.929 4.419-2.929 7.071v0.667c0 0.354 0.14 0.693 0.391 0.943s0.589 0.39 0.943 0.39 0.693-0.14 0.943-0.39c0.25-0.25 0.391-0.589 0.391-0.943v-0.667c0-1.945 0.773-3.81 2.148-5.185s3.24-2.148 5.185-2.148c1.945 0 3.81 0.773 5.185 2.148s2.148 3.241 2.148 5.185v0.667c0 0.354 0.14 0.693 0.39 0.943s0.589 0.39 0.943 0.39c0.354 0 0.693-0.14 0.943-0.39s0.391-0.589 0.391-0.943zM32 24c-0-1.802-0.522-3.565-1.502-5.077s-2.377-2.708-4.022-3.443c-1.645-0.735-3.467-0.979-5.248-0.702s-3.442 1.064-4.785 2.266c-0.132 0.116-0.24 0.258-0.318 0.416s-0.123 0.33-0.133 0.506c-0.011 0.176 0.014 0.352 0.072 0.518s0.148 0.32 0.266 0.451c0.118 0.131 0.26 0.238 0.419 0.314s0.331 0.12 0.507 0.128c0.176 0.009 0.352-0.017 0.518-0.077s0.318-0.151 0.448-0.27c0.959-0.858 2.146-1.42 3.418-1.618s2.573-0.024 3.748 0.502 2.172 1.38 2.872 2.459c0.7 1.080 1.072 2.339 1.072 3.626 0 0.354 0.14 0.693 0.39 0.943s0.589 0.391 0.943 0.391c0.354 0 0.693-0.14 0.943-0.391s0.391-0.589 0.391-0.943zM23.333 12c-1.187 0-2.347-0.352-3.333-1.011s-1.756-1.596-2.21-2.693c-0.454-1.096-0.573-2.303-0.341-3.467s0.803-2.233 1.642-3.072c0.839-0.839 1.908-1.411 3.072-1.642s2.37-0.113 3.467 0.341c1.096 0.454 2.033 1.223 2.693 2.21s1.011 2.147 1.011 3.333c-0.002 1.591-0.634 3.116-1.759 4.241s-2.65 1.758-4.241 1.759zM23.333 2.667c-0.659 0-1.304 0.196-1.852 0.562s-0.975 0.887-1.228 1.496c-0.252 0.609-0.318 1.279-0.19 1.926s0.446 1.241 0.912 1.707c0.466 0.466 1.060 0.784 1.707 0.912s1.317 0.063 1.926-0.19c0.609-0.252 1.13-0.68 1.496-1.228s0.562-1.193 0.562-1.852c0-0.884-0.351-1.732-0.976-2.357s-1.473-0.976-2.357-0.976z"></path>
        </symbol>
        <symbol id="notepad_icon" viewBox="0 0 24 32">
            <path d="M21.333 2.667v-2.667h-2.667v2.667h-2.667v-2.667h-2.667v2.667h-2.667v-2.667h-2.667v2.667h-2.667v-2.667h-2.667v2.667h-2.667v25.333c0 1.061 0.421 2.078 1.172 2.828s1.768 1.172 2.828 1.172h16c1.061 0 2.078-0.421 2.828-1.172s1.172-1.768 1.172-2.828v-25.333h-2.667zM21.333 28c0 0.354-0.14 0.693-0.391 0.943s-0.589 0.391-0.943 0.391h-16c-0.354 0-0.693-0.14-0.943-0.391s-0.391-0.589-0.391-0.943v-22.667h18.667v22.667zM18.667 12h-13.333v-2.667h13.333v2.667zM18.667 17.333h-13.333v-2.667h13.333v2.667zM13.333 22.667h-8v-2.667h8v2.667z"></path>
        </symbol>
        <symbol id="settings_icon" viewBox="0 0 29 32">
            <path d="M14.395 10.667c-1.055 0-2.086 0.313-2.963 0.899s-1.561 1.419-1.964 2.394c-0.404 0.975-0.509 2.047-0.304 3.082s0.714 1.985 1.46 2.731c0.746 0.746 1.696 1.254 2.731 1.46s2.107 0.1 3.081-0.303c0.975-0.404 1.808-1.087 2.394-1.964s0.899-1.908 0.899-2.963c0-1.414-0.562-2.771-1.562-3.771s-2.357-1.562-3.771-1.562zM14.395 18.667c-0.527 0-1.043-0.156-1.482-0.449s-0.78-0.709-0.982-1.197-0.255-1.023-0.152-1.541c0.103-0.517 0.357-0.992 0.73-1.365s0.848-0.627 1.365-0.73 1.053-0.050 1.541 0.152c0.487 0.202 0.904 0.544 1.197 0.982s0.449 0.954 0.449 1.482c0 0.707-0.281 1.386-0.781 1.886s-1.178 0.781-1.886 0.781z"></path>
            <path d="M26.788 18.533l-0.592-0.341c0.266-1.45 0.266-2.937 0-4.387l0.592-0.341c0.455-0.263 0.854-0.612 1.174-1.029s0.555-0.893 0.691-1.4c0.136-0.508 0.171-1.037 0.103-1.558s-0.239-1.024-0.501-1.479-0.612-0.854-1.029-1.174c-0.417-0.32-0.893-0.555-1.4-0.691s-1.037-0.171-1.558-0.103c-0.521 0.068-1.024 0.239-1.479 0.501l-0.593 0.343c-1.121-0.957-2.408-1.7-3.799-2.189v-0.684c0-1.061-0.421-2.078-1.172-2.828s-1.768-1.172-2.828-1.172c-1.061 0-2.078 0.421-2.828 1.172s-1.172 1.768-1.172 2.828v0.684c-1.39 0.491-2.678 1.235-3.797 2.195l-0.596-0.345c-0.919-0.53-2.012-0.674-3.037-0.399s-1.899 0.946-2.43 1.866c-0.53 0.919-0.674 2.012-0.399 3.037s0.946 1.899 1.866 2.43l0.592 0.341c-0.267 1.45-0.267 2.937 0 4.387l-0.592 0.341c-0.919 0.53-1.59 1.404-1.866 2.43s-0.132 2.118 0.399 3.037c0.53 0.919 1.404 1.59 2.43 1.866s2.118 0.132 3.037-0.399l0.593-0.343c1.121 0.958 2.409 1.7 3.8 2.189v0.684c0 1.061 0.421 2.078 1.172 2.828s1.768 1.172 2.828 1.172c1.061 0 2.078-0.421 2.828-1.172s1.172-1.768 1.172-2.828v-0.684c1.39-0.491 2.678-1.235 3.797-2.195l0.596 0.344c0.919 0.53 2.012 0.674 3.037 0.399s1.899-0.946 2.43-1.866c0.53-0.919 0.674-2.012 0.399-3.037s-0.946-1.899-1.866-2.43l-0.001 0.001zM23.39 13.499c0.452 1.636 0.452 3.364 0 5-0.079 0.285-0.061 0.588 0.051 0.861s0.312 0.502 0.568 0.65l1.445 0.835c0.306 0.177 0.53 0.468 0.622 0.81s0.044 0.706-0.133 1.012-0.468 0.53-0.81 0.622c-0.342 0.092-0.706 0.044-1.012-0.133l-1.448-0.837c-0.256-0.148-0.554-0.207-0.848-0.167s-0.565 0.176-0.772 0.387c-1.187 1.212-2.682 2.076-4.324 2.5-0.287 0.074-0.541 0.241-0.722 0.475s-0.28 0.521-0.279 0.817v1.671c0 0.354-0.14 0.693-0.391 0.943s-0.589 0.391-0.943 0.391-0.693-0.14-0.943-0.391c-0.25-0.25-0.391-0.589-0.391-0.943v-1.669c0-0.296-0.098-0.584-0.279-0.817s-0.435-0.401-0.722-0.475c-1.642-0.426-3.137-1.292-4.323-2.505-0.207-0.211-0.479-0.348-0.772-0.387s-0.592 0.019-0.848 0.167l-1.445 0.836c-0.152 0.089-0.319 0.147-0.494 0.171s-0.351 0.013-0.521-0.032c-0.17-0.045-0.329-0.123-0.469-0.23s-0.257-0.24-0.345-0.392c-0.088-0.152-0.145-0.32-0.168-0.495s-0.011-0.352 0.035-0.521c0.046-0.17 0.125-0.329 0.233-0.468s0.242-0.255 0.395-0.342l1.445-0.835c0.256-0.148 0.456-0.376 0.568-0.65s0.13-0.576 0.051-0.861c-0.452-1.636-0.452-3.364 0-5 0.077-0.284 0.059-0.586-0.054-0.858s-0.311-0.5-0.566-0.647l-1.445-0.835c-0.306-0.177-0.53-0.468-0.622-0.81s-0.044-0.706 0.133-1.012c0.177-0.306 0.468-0.53 0.81-0.622s0.706-0.044 1.012 0.133l1.448 0.837c0.255 0.149 0.553 0.208 0.846 0.169s0.565-0.174 0.773-0.384c1.187-1.212 2.682-2.076 4.324-2.5 0.288-0.074 0.542-0.242 0.724-0.477s0.279-0.524 0.278-0.821v-1.669c0-0.354 0.14-0.693 0.39-0.943s0.589-0.391 0.943-0.391c0.354 0 0.693 0.14 0.943 0.391s0.39 0.589 0.39 0.943v1.669c-0 0.296 0.098 0.584 0.279 0.817s0.435 0.401 0.722 0.475c1.643 0.426 3.138 1.292 4.324 2.505 0.207 0.211 0.479 0.348 0.772 0.387s0.592-0.019 0.848-0.167l1.445-0.836c0.152-0.089 0.319-0.147 0.494-0.171s0.351-0.013 0.521 0.032c0.17 0.045 0.329 0.123 0.469 0.23s0.257 0.24 0.345 0.392c0.088 0.152 0.145 0.32 0.168 0.495s0.011 0.352-0.035 0.521-0.125 0.329-0.233 0.468c-0.108 0.139-0.242 0.255-0.395 0.342l-1.445 0.835c-0.255 0.148-0.453 0.375-0.565 0.648s-0.13 0.574-0.052 0.858v-0.001z"></path>
        </symbol>
        <symbol id="money_icon" viewBox="0 0 30 32">
            <path d="M18.055 7.296c1.595-1.36 3.279-3.397 3.279-5.963v-1.333h-13.333v1.333c0 2.565 1.684 4.601 3.279 5.963-6.273 2.236-11.279 10.203-11.279 16.704 0 4.412 3.588 8 8 8h13.333c4.412 0 8-3.588 8-8 0-6.501-5.005-14.468-11.279-16.704zM10.943 2.667h7.444c-0.695 1.675-2.52 3.080-3.711 3.803-1.003-0.613-3.001-2.016-3.732-3.803h-0.001zM21.333 29.333h-13.333c-2.941 0-5.333-2.392-5.333-5.333 0-6.881 6.12-14.644 11.997-14.644s12.003 7.764 12.003 14.644c0 2.941-2.392 5.333-5.333 5.333zM12 17.333c0 0.504 0.361 0.931 0.859 1.013l4.056 0.676c1.788 0.297 3.087 1.831 3.087 3.644 0 2.205-1.795 4-4 4v1.333h-2.667v-1.333c-2.205 0-4-1.795-4-4h2.667c0 0.735 0.599 1.333 1.333 1.333h2.667c0.735 0 1.333-0.599 1.333-1.333 0-0.504-0.361-0.931-0.859-1.013l-4.056-0.676c-1.788-0.297-3.087-1.831-3.087-3.644 0-2.205 1.795-4 4-4v-1.333h2.667v1.333c2.205 0 4 1.795 4 4h-2.667c0-0.735-0.599-1.333-1.333-1.333h-2.667c-0.735 0-1.333 0.599-1.333 1.333z"></path>
        </symbol>
        <symbol id="message_icon" viewBox="0 0 32 32">
            <path d="M31.968 32h-15.976c-3.121-0.002-6.174-0.916-8.782-2.631s-4.658-4.155-5.896-7.020-1.612-6.030-1.075-9.105c0.538-3.075 1.963-5.925 4.1-8.2s4.893-3.875 7.928-4.603c3.035-0.728 6.217-0.553 9.154 0.505s5.5 2.951 7.374 5.447c1.874 2.496 2.977 5.486 3.173 8.601v17.005zM15.992 2.667c-3.536 0-6.928 1.405-9.428 3.905s-3.905 5.892-3.905 9.428c0 3.536 1.405 6.928 3.905 9.428s5.892 3.905 9.428 3.905h13.309v-14.212c-0.229-3.376-1.73-6.539-4.2-8.85s-5.726-3.6-9.109-3.604z"></path>
            <path d="M17.302 9.333h-8v2.667h8v-2.667z"></path>
            <path d="M22.635 14.667h-13.333v2.667h13.333v-2.667z"></path>
            <path d="M22.635 20h-13.333v2.667h13.333v-2.667z"></path>
        </symbol>
        <symbol id="wallet_icon" viewBox="0 0 38 32">
            <path d="M4.706 3.137h32.941v-3.137h-32.941c-2.595 0-4.706 2.111-4.706 4.706v21.961c0 2.595 2.111 4.706 4.706 4.706h32.941v-25.098h-32.941c-0.866 0-1.569-0.704-1.569-1.569s0.703-1.569 1.569-1.569zM4.706 9.412h29.804v18.824h-29.804c-0.866 0-1.569-0.704-1.569-1.569v-17.523c0.489 0.174 1.018 0.268 1.569 0.268zM28.235 18.824c0-0.866 0.703-1.569 1.569-1.569s1.569 0.703 1.569 1.569c0 0.866-0.703 1.569-1.569 1.569s-1.569-0.703-1.569-1.569z"></path>
        </symbol>
        <symbol id="notes_icon" viewBox="0 0 32 32">
            <path d="M16 0c-8.823 0-16 7.177-16 16s7.177 16 16 16h16v-16c0-8.823-7.177-16-16-16zM29.333 29.333h-13.333c-7.352 0-13.333-5.981-13.333-13.333s5.981-13.333 13.333-13.333c7.352 0 13.333 5.981 13.333 13.333v13.333zM10.667 10.667h4v6.667c0 2.941-2.392 5.333-5.333 5.333v-2.667c1.471 0 2.667-1.196 2.667-2.667h-4v-4c0-1.471 1.196-2.667 2.667-2.667zM20 10.667h4v6.667c0 2.941-2.392 5.333-5.333 5.333v-2.667c1.471 0 2.667-1.196 2.667-2.667h-4v-4c0-1.471 1.196-2.667 2.667-2.667z"></path>
        </symbol>
        <symbol id="white-paw_icon" viewBox="0 0 31 32">
            <path d="M10.614 10.406c-0.754-0.011-1.48-0.284-2.054-0.773-1.198-1.099-1.924-2.619-2.025-4.242-0.316-3.244 1.453-5.156 3.364-5.37 0.46-0.051 0.927-0.009 1.37 0.123s0.856 0.354 1.213 0.649c0.532 0.48 0.965 1.060 1.272 1.707s0.483 1.349 0.518 2.065c0.291 3.022-1.319 5.839-3.658 5.839zM3.706 18.21c-0.692-0.016-1.353-0.292-1.851-0.773-1.101-1.146-1.748-2.654-1.821-4.242-0.286-3.244 1.309-5.156 3.032-5.37 0.42-0.048 0.846-0.004 1.247 0.13s0.769 0.353 1.076 0.643c0.99 1.012 1.565 2.358 1.614 3.772 0.261 3.022-1.339 5.839-3.298 5.839zM20.594 10.406c-2.354 0-3.947-2.818-3.651-5.843 0.035-0.716 0.211-1.418 0.518-2.065s0.739-1.228 1.272-1.707c0.356-0.294 0.768-0.514 1.211-0.646s0.907-0.174 1.366-0.123c1.911 0.213 3.68 2.126 3.364 5.37-0.101 1.623-0.827 3.144-2.025 4.243-0.574 0.488-1.301 0.761-2.054 0.771zM27.38 18.21c-2.453 0-3.677-2.818-3.402-5.843 0.055-1.424 0.651-2.773 1.666-3.772 0.322-0.292 0.703-0.512 1.117-0.646s0.852-0.177 1.284-0.127c1.779 0.213 3.428 2.126 3.134 5.37-0.083 1.599-0.755 3.111-1.888 4.243-0.521 0.484-1.201 0.76-1.912 0.775zM20.807 31.219c-1.112 0.022-2.21-0.25-3.183-0.787-0.623-0.328-1.316-0.5-2.020-0.5s-1.397 0.171-2.020 0.5c-3.919 2.194-8.488-0.219-8.386-5.717 0-6.031 5.863-11.707 10.407-11.707s10.406 5.677 10.406 11.707c0 3.83-2.14 6.504-5.203 6.504z"></path>
        </symbol>
        <symbol id="my-donates_icon" viewBox="0 0 43 32">
            <path d="M9.778 24.889c1.473 0 2.667-1.194 2.667-2.667s-1.194-2.667-2.667-2.667c-1.473 0-2.667 1.194-2.667 2.667s1.194 2.667 2.667 2.667z"></path>
            <path d="M37.333 0h-32c-1.415 0-2.771 0.562-3.771 1.562s-1.562 2.357-1.562 3.771v26.667h42.667v-26.667c0-1.415-0.562-2.771-1.562-3.771s-2.357-1.562-3.771-1.562zM5.333 3.556h32c0.471 0 0.924 0.187 1.257 0.521s0.521 0.786 0.521 1.257v3.556h-35.556v-3.556c0-0.471 0.187-0.924 0.521-1.257s0.786-0.521 1.257-0.521zM3.556 28.444v-16h35.556v16h-35.556z"></path>
        </symbol>
        <symbol id="qa_icon" viewBox="0 0 32 32">
            <path d="M32 21.333v10.667h-10.667c-3.94 0-7.38-2.153-9.227-5.339 1.025-0.008 2.024-0.121 2.989-0.331 1.468 1.828 3.716 3.003 6.237 3.003h8v-8c0-2.521-1.175-4.769-3.003-6.237 0.208-0.965 0.323-1.964 0.331-2.989 3.185 1.847 5.339 5.287 5.339 9.227zM16.083 23.269c-1.276 0.464-2.647 0.731-4.083 0.731h-12v-12c0-6.617 5.383-12 12-12s12 5.383 12 12c0 4.176-2.147 7.856-5.391 10.005l2.043 1.98 5.083-4.939 1.864 1.907-5.057 4.943c-0.513 0.513-1.192 0.771-1.871 0.771-0.684 0-1.368-0.26-1.889-0.781l-2.699-2.616zM12 21.333c5.145 0 9.333-4.188 9.333-9.333s-4.188-9.333-9.333-9.333c-5.145 0-9.333 4.188-9.333 9.333v9.333h9.333zM12.715 5.397c-1.181-0.215-2.377 0.108-3.285 0.871-0.909 0.763-1.429 1.88-1.429 3.065h2.667c0-0.396 0.175-0.768 0.477-1.023 0.305-0.259 0.696-0.364 1.109-0.288 0.521 0.091 0.965 0.535 1.057 1.059 0.124 0.707-0.284 1.207-0.669 1.42-1.127 0.62-1.975 2.127-1.975 3.504v0.66h2.667v-0.66c0-0.416 0.347-1.031 0.596-1.168 1.5-0.828 2.305-2.524 2.008-4.217-0.283-1.616-1.609-2.943-3.223-3.224v0.001zM10.667 18.667h2.667v-2.667h-2.667v2.667z"></path>
        </symbol>
        <symbol id="my-notes_icon" viewBox="0 0 32 32">
            <path d="M6.667 25.333h5.885l18.191-18.191c0.779-0.781 1.217-1.839 1.217-2.943s-0.438-2.162-1.217-2.943c-0.792-0.757-1.846-1.18-2.943-1.18s-2.15 0.423-2.943 1.18l-18.191 18.191v5.885zM9.333 20.552l17.409-17.409c0.285-0.272 0.663-0.424 1.057-0.424s0.773 0.152 1.057 0.424c0.28 0.281 0.437 0.661 0.437 1.057s-0.157 0.777-0.437 1.057l-17.409 17.409h-2.115v-2.115z"></path>
            <path d="M31.495 10.163l-2.161 2.161v9.009h-8v8h-18.667v-25.333c0-0.354 0.14-0.693 0.391-0.943s0.589-0.391 0.943-0.391h15.677l2.161-2.161c0.195-0.18 0.4-0.349 0.615-0.505h-18.453c-1.061 0-2.078 0.421-2.828 1.172s-1.172 1.768-1.172 2.828v28h24.552l7.448-7.448v-15.004c-0.156 0.214-0.325 0.42-0.505 0.615zM24 28.781v-4.781h4.781l-4.781 4.781z"></path>
        </symbol>
        <symbol id="edit_icon" viewBox="0 0 29 32">
            <path fill="#fff" stroke-linejoin="miter" stroke-linecap="butt" stroke-miterlimit="4" stroke-width="2.1818" d="M1.091 30.682v-5.1l16.781-18.319 4.58 5-16.873 18.419h-4.489zM27.814 5.397c0.248 0.271 0.248 0.742 0 1.013l-2.153 2.35-4.58-5 2.282-2.491c0.198-0.216 0.472-0.216 0.67 0l3.781 4.128z"></path>
        </symbol>
        <symbol id="my-courses_icon" viewBox="0 0 32 32">
            <path d="M32 26.666v-18.667c0-1.061-0.421-2.078-1.172-2.828s-1.768-1.172-2.828-1.172h-1.333c-0-0.619-0.144-1.23-0.42-1.784s-0.677-1.036-1.171-1.409c-0.494-0.373-1.068-0.626-1.677-0.739s-1.235-0.084-1.83 0.086l-4 1.144c-0.582 0.167-1.118 0.464-1.568 0.869-0.45-0.405-0.986-0.703-1.568-0.869l-4-1.144c-0.595-0.17-1.222-0.2-1.83-0.086s-1.183 0.366-1.677 0.739-0.895 0.855-1.171 1.409c-0.276 0.554-0.42 1.165-0.42 1.784h-1.333c-1.061 0-2.078 0.421-2.828 1.172s-1.172 1.768-1.172 2.828v18.667h14.667v2.667h-5.333v2.667h13.333v-2.667h-5.333v-2.667h14.667zM17.333 5.143c0-0.29 0.094-0.571 0.269-0.802s0.419-0.399 0.698-0.479l4-1.143c0.119-0.034 0.243-0.052 0.367-0.053 0.354 0 0.693 0.14 0.943 0.391s0.391 0.589 0.391 0.943v8.328l-6.667 1.904v-9.088zM8 3.999c0-0.206 0.048-0.41 0.141-0.594s0.226-0.345 0.391-0.469c0.165-0.124 0.356-0.208 0.559-0.246s0.412-0.028 0.61 0.029l4 1.143c0.278 0.080 0.523 0.248 0.698 0.479s0.269 0.513 0.269 0.802v9.088l-6.667-1.904v-8.328zM2.667 7.999c0-0.354 0.14-0.693 0.391-0.943s0.589-0.391 0.943-0.391h1.333v7.672l10.667 3.048 10.667-3.048v-7.672h1.333c0.354 0 0.693 0.14 0.943 0.391s0.391 0.589 0.391 0.943v16h-26.667v-16z"></path>
        </symbol>
        <symbol id="my-mentors_icon" viewBox="0 0 38 32">
            <path d="M32.918 16.351v-2.234c0-3.744-1.487-7.335-4.135-9.983s-6.239-4.135-9.983-4.135c-3.744 0-7.335 1.487-9.983 4.135s-4.135 6.239-4.135 9.983v2.234c-1.645 0.725-2.992 1.992-3.814 3.591s-1.070 3.431-0.703 5.191c0.368 1.76 1.328 3.34 2.722 4.476s3.135 1.759 4.932 1.764c0.832 0 1.63-0.331 2.218-0.919s0.919-1.386 0.919-2.218v-9.412c0-0.832-0.331-1.63-0.919-2.218s-1.386-0.919-2.218-0.919v-1.569c0-2.912 1.157-5.705 3.216-7.764s4.852-3.216 7.764-3.216c2.912 0 5.705 1.157 7.764 3.216s3.216 4.852 3.216 7.764v1.569c-0.832 0-1.63 0.331-2.218 0.919s-0.919 1.386-0.919 2.218v9.412h-4.706c-0.416 0-0.815 0.165-1.109 0.459s-0.459 0.693-0.459 1.109c0 0.416 0.165 0.815 0.459 1.109s0.693 0.459 1.109 0.459h7.843c1.798-0.005 3.539-0.628 4.932-1.764s2.354-2.716 2.722-4.476c0.368-1.76 0.119-3.592-0.703-5.191s-2.169-2.866-3.814-3.591zM7.82 28.235c-1.248 0-2.445-0.496-3.328-1.378s-1.378-2.079-1.378-3.328 0.496-2.445 1.378-3.328c0.883-0.883 2.079-1.378 3.328-1.378v9.412zM29.781 28.235v-9.412c1.248 0 2.445 0.496 3.328 1.378s1.378 2.079 1.378 3.328-0.496 2.445-1.378 3.328c-0.883 0.883-2.080 1.378-3.328 1.378z"></path>
        </symbol>
    </defs>
</svg>