<svg aria-hidden="true" style="position: absolute; width: 0; height: 0; overflow: hidden;" version="1.1" xmlns="http://www.w3.org/2000/svg" xmlns:xlink="http://www.w3.org/1999/xlink">
<defs>
<symbol id="discord-grey_icon" viewBox="0 0 32 32">
<path fill="#bbc0cb" style="fill: var(--color1, #bbc0cb)" d="M16 32c8.837 0 16-7.163 16-16s-7.163-16-16-16c-8.837 0-16 7.163-16 16s7.163 16 16 16z"></path>
<path fill="#fff" style="fill: var(--color2, #fff)" d="M21.545 10.906c-1.037-0.476-2.132-0.816-3.257-1.010-0.010-0.002-0.021-0.001-0.030 0.004s-0.017 0.012-0.022 0.021c-0.149 0.271-0.285 0.549-0.406 0.833-1.212-0.184-2.445-0.184-3.658 0-0.122-0.285-0.259-0.563-0.412-0.833-0.005-0.009-0.013-0.016-0.022-0.020s-0.020-0.006-0.030-0.004c-1.124 0.194-2.219 0.534-3.256 1.010-0.009 0.004-0.016 0.010-0.022 0.018-2.074 3.099-2.642 6.122-2.363 9.107 0.001 0.007 0.003 0.014 0.007 0.021s0.008 0.012 0.014 0.017c1.208 0.895 2.559 1.578 3.995 2.020 0.010 0.003 0.021 0.003 0.031-0s0.019-0.010 0.025-0.018c0.308-0.42 0.582-0.865 0.817-1.329 0.003-0.006 0.005-0.013 0.005-0.020s-0.001-0.014-0.003-0.021c-0.003-0.007-0.007-0.013-0.012-0.018s-0.011-0.009-0.018-0.011c-0.431-0.165-0.848-0.363-1.248-0.594-0.007-0.004-0.013-0.010-0.018-0.017s-0.007-0.015-0.007-0.024c-0.001-0.008 0.001-0.017 0.005-0.024s0.009-0.014 0.016-0.019c0.084-0.062 0.168-0.128 0.248-0.194 0.007-0.006 0.016-0.010 0.025-0.011s0.018 0 0.027 0.004c2.618 1.196 5.453 1.196 8.041 0 0.008-0.004 0.018-0.006 0.027-0.004s0.018 0.005 0.025 0.011c0.080 0.066 0.164 0.132 0.25 0.195 0.007 0.005 0.012 0.012 0.016 0.019s0.005 0.016 0.005 0.024c-0 0.008-0.003 0.017-0.007 0.024s-0.010 0.013-0.018 0.018c-0.399 0.233-0.817 0.431-1.25 0.594-0.007 0.003-0.013 0.006-0.018 0.012s-0.009 0.011-0.012 0.018-0.004 0.014-0.003 0.021c0 0.007 0.002 0.014 0.006 0.021 0.239 0.462 0.512 0.906 0.817 1.329 0.006 0.009 0.015 0.015 0.025 0.019s0.021 0.004 0.031 0c1.439-0.441 2.791-1.124 4-2.020 0.006-0.004 0.011-0.010 0.014-0.016s0.006-0.013 0.006-0.021c0.334-3.451-0.559-6.449-2.366-9.107-0.004-0.009-0.011-0.016-0.020-0.020zM13.346 18.214c-0.788 0-1.438-0.724-1.438-1.612s0.637-1.613 1.438-1.613c0.807 0 1.451 0.73 1.438 1.613 0.001 0.889-0.637 1.612-1.438 1.612zM18.663 18.214c-0.788 0-1.438-0.724-1.438-1.612s0.637-1.613 1.438-1.613c0.807 0 1.451 0.73 1.438 1.613 0 0.889-0.63 1.612-1.438 1.612z"></path>
</symbol>
<symbol id="discord_icon" viewBox="0 0 32 32">
<path fill="#5865f2" style="fill: var(--color3, #5865f2)" d="M16 32c8.837 0 16-7.163 16-16s-7.163-16-16-16c-8.837 0-16 7.163-16 16s7.163 16 16 16z"></path>
<path fill="#fff" style="fill: var(--color2, #fff)" d="M21.545 10.906c-1.037-0.476-2.132-0.816-3.257-1.010-0.010-0.002-0.021-0.001-0.030 0.004s-0.017 0.012-0.022 0.021c-0.149 0.271-0.285 0.549-0.406 0.833-1.212-0.184-2.445-0.184-3.658 0-0.122-0.285-0.259-0.563-0.412-0.833-0.005-0.009-0.013-0.016-0.022-0.020s-0.020-0.006-0.030-0.004c-1.124 0.194-2.219 0.534-3.256 1.010-0.009 0.004-0.016 0.010-0.022 0.018-2.074 3.099-2.642 6.122-2.363 9.107 0.001 0.007 0.003 0.014 0.007 0.021s0.008 0.012 0.014 0.017c1.208 0.895 2.559 1.578 3.995 2.020 0.010 0.003 0.021 0.003 0.031-0s0.019-0.010 0.025-0.018c0.308-0.42 0.582-0.865 0.817-1.329 0.003-0.006 0.005-0.013 0.005-0.020s-0.001-0.014-0.003-0.021c-0.003-0.007-0.007-0.013-0.012-0.018s-0.011-0.009-0.018-0.011c-0.431-0.165-0.848-0.363-1.248-0.594-0.007-0.004-0.013-0.010-0.018-0.017s-0.007-0.015-0.007-0.024c-0.001-0.008 0.001-0.017 0.005-0.024s0.009-0.014 0.016-0.019c0.084-0.062 0.168-0.128 0.248-0.194 0.007-0.006 0.016-0.010 0.025-0.011s0.018 0 0.027 0.004c2.618 1.196 5.453 1.196 8.041 0 0.008-0.004 0.018-0.006 0.027-0.005s0.018 0.005 0.025 0.011c0.080 0.066 0.164 0.132 0.25 0.195 0.007 0.005 0.012 0.012 0.016 0.019s0.005 0.016 0.005 0.024c-0 0.008-0.003 0.017-0.007 0.024s-0.010 0.013-0.018 0.018c-0.399 0.233-0.817 0.431-1.25 0.594-0.007 0.003-0.013 0.006-0.018 0.012s-0.009 0.011-0.012 0.018c-0.003 0.007-0.004 0.014-0.003 0.021s0.002 0.014 0.006 0.021c0.239 0.462 0.512 0.906 0.817 1.329 0.006 0.009 0.015 0.015 0.025 0.019s0.021 0.004 0.031 0c1.439-0.441 2.791-1.124 4-2.020 0.006-0.004 0.011-0.010 0.014-0.016s0.006-0.013 0.006-0.021c0.334-3.451-0.559-6.449-2.366-9.107-0.004-0.009-0.011-0.016-0.020-0.020zM13.346 18.214c-0.788 0-1.438-0.724-1.438-1.613s0.637-1.612 1.438-1.612c0.807 0 1.451 0.73 1.438 1.612 0.001 0.889-0.637 1.613-1.438 1.613zM18.663 18.214c-0.788 0-1.438-0.724-1.438-1.613s0.637-1.612 1.438-1.612c0.807 0 1.451 0.73 1.438 1.612 0 0.889-0.63 1.613-1.438 1.613z"></path>
</symbol>
<symbol id="github-grey_icon" viewBox="0 0 33 32">
<path fill="#bbc0cb" style="fill: var(--color1, #bbc0cb)" d="M16.327 0c-9.020 0-16.327 7.306-16.327 16.327 0 7.224 4.673 13.326 11.163 15.49 0.816 0.143 1.122-0.347 1.122-0.776 0-0.388-0.020-1.673-0.020-3.041-4.102 0.755-5.163-1-5.49-1.918-0.184-0.469-0.98-1.918-1.673-2.306-0.571-0.306-1.388-1.061-0.020-1.082 1.286-0.020 2.204 1.184 2.51 1.673 1.469 2.469 3.816 1.775 4.755 1.347 0.143-1.061 0.571-1.776 1.041-2.184-3.633-0.408-7.429-1.816-7.429-8.061 0-1.775 0.633-3.245 1.673-4.388-0.163-0.408-0.735-2.082 0.163-4.327 0 0 1.367-0.429 4.49 1.673 1.306-0.367 2.694-0.551 4.082-0.551s2.776 0.184 4.082 0.551c3.122-2.122 4.49-1.673 4.49-1.673 0.898 2.245 0.327 3.918 0.163 4.327 1.041 1.143 1.673 2.592 1.673 4.388 0 6.265-3.816 7.653-7.449 8.061 0.592 0.51 1.102 1.49 1.102 3.020 0 2.184-0.020 3.939-0.020 4.49 0 0.429 0.306 0.939 1.122 0.776 3.241-1.094 6.058-3.177 8.053-5.956s3.069-6.113 3.069-9.534c0-9.020-7.306-16.327-16.327-16.327z"></path>
</symbol>
<symbol id="github_icon" viewBox="0 0 33 32">
<path d="M16.327 0c-9.020 0-16.327 7.306-16.327 16.327 0 7.224 4.673 13.326 11.163 15.49 0.816 0.143 1.122-0.347 1.122-0.776 0-0.388-0.020-1.673-0.020-3.041-4.102 0.755-5.163-1-5.49-1.918-0.184-0.469-0.98-1.918-1.673-2.306-0.571-0.306-1.388-1.061-0.020-1.082 1.286-0.020 2.204 1.184 2.51 1.673 1.469 2.469 3.816 1.775 4.755 1.347 0.143-1.061 0.571-1.776 1.041-2.184-3.633-0.408-7.429-1.816-7.429-8.061 0-1.775 0.633-3.245 1.673-4.388-0.163-0.408-0.735-2.082 0.163-4.327 0 0 1.367-0.429 4.49 1.673 1.306-0.367 2.694-0.551 4.082-0.551s2.776 0.184 4.082 0.551c3.122-2.122 4.49-1.673 4.49-1.673 0.898 2.245 0.327 3.918 0.163 4.327 1.041 1.143 1.673 2.592 1.673 4.388 0 6.265-3.816 7.653-7.449 8.061 0.592 0.51 1.102 1.49 1.102 3.020 0 2.184-0.020 3.939-0.020 4.49 0 0.429 0.306 0.939 1.122 0.776 3.241-1.094 6.058-3.177 8.053-5.956s3.069-6.113 3.069-9.534c0-9.020-7.306-16.327-16.327-16.327z"></path>
</symbol>
<symbol id="gitlab-grey_icon" viewBox="0 0 33 32">
<path fill="#bbc0cb" style="fill: var(--color1, #bbc0cb)" d="M32.11 12.448l-0.046-0.117-4.444-11.599c-0.090-0.227-0.251-0.42-0.457-0.551-0.207-0.128-0.448-0.19-0.692-0.177s-0.477 0.1-0.669 0.25c-0.19 0.154-0.328 0.363-0.394 0.598l-3.001 9.181h-12.151l-3.001-9.181c-0.065-0.237-0.203-0.447-0.394-0.6-0.192-0.15-0.425-0.237-0.669-0.25s-0.485 0.049-0.692 0.177c-0.206 0.131-0.366 0.324-0.457 0.551l-4.497 11.711c-0.64 1.672-0.719 3.506-0.225 5.226s1.533 3.234 2.962 4.312l0.015 0.012 0.041 0.029 6.77 5.070 5.39 4.075c0.239 0.181 0.53 0.279 0.83 0.279s0.591-0.098 0.83-0.279l2.040-1.54 3.349-2.535 6.828-5.114c1.426-1.078 2.463-2.59 2.956-4.308s0.415-3.55-0.222-5.22z"></path>
<path fill="#f0eeee" style="fill: var(--color4, #f0eeee)" d="M32.11 12.448l-0.046-0.117c-2.166 0.444-4.206 1.362-5.976 2.686l-9.761 7.381c3.324 2.515 6.218 4.699 6.218 4.699l6.828-5.114c1.428-1.078 2.467-2.591 2.96-4.31s0.415-3.553-0.223-5.224z"></path>
<path fill="#d9d4d4" style="fill: var(--color5, #d9d4d4)" d="M10.109 27.097l5.39 4.075c0.239 0.181 0.53 0.279 0.83 0.279s0.591-0.098 0.83-0.279l2.040-1.54 3.349-2.535c0 0-2.897-2.192-6.221-4.699-3.324 2.508-6.218 4.699-6.218 4.699z"></path>
<path fill="#f0eeee" style="fill: var(--color4, #f0eeee)" d="M6.564 15.017c-1.769-1.327-3.809-2.247-5.974-2.693l-0.044 0.117c-0.64 1.672-0.719 3.506-0.225 5.226s1.533 3.234 2.962 4.312l0.015 0.012 0.041 0.029 6.77 5.070c0 0 2.89-2.185 6.218-4.699l-9.763-7.374z"></path>
</symbol>
<symbol id="gitlab_icon" viewBox="0 0 33 32">
<path fill="#e24329" style="fill: var(--color6, #e24329)" d="M32.11 12.448l-0.046-0.117-4.444-11.599c-0.090-0.227-0.251-0.42-0.457-0.551-0.207-0.128-0.448-0.19-0.692-0.177s-0.477 0.1-0.669 0.25c-0.19 0.154-0.328 0.363-0.394 0.598l-3.001 9.181h-12.151l-3.001-9.181c-0.065-0.237-0.203-0.447-0.394-0.6-0.192-0.15-0.425-0.237-0.669-0.25s-0.485 0.049-0.692 0.177c-0.206 0.131-0.366 0.324-0.457 0.551l-4.497 11.711c-0.64 1.672-0.719 3.506-0.225 5.226s1.533 3.234 2.962 4.312l0.015 0.012 0.041 0.029 6.77 5.070 5.39 4.075c0.239 0.181 0.53 0.279 0.83 0.279s0.591-0.098 0.83-0.279l2.040-1.54 3.349-2.535 6.828-5.114c1.426-1.078 2.463-2.59 2.956-4.308s0.415-3.55-0.222-5.22z"></path>
<path fill="#fc6d26" style="fill: var(--color7, #fc6d26)" d="M32.11 12.448l-0.046-0.117c-2.166 0.444-4.206 1.362-5.976 2.686l-9.761 7.381c3.324 2.515 6.218 4.699 6.218 4.699l6.828-5.114c1.428-1.078 2.467-2.591 2.96-4.31s0.415-3.553-0.223-5.224z"></path>
<path fill="#fca326" style="fill: var(--color8, #fca326)" d="M10.109 27.097l5.39 4.075c0.239 0.181 0.53 0.279 0.83 0.279s0.591-0.098 0.83-0.279l2.040-1.54 3.349-2.535c0 0-2.897-2.192-6.221-4.699-3.324 2.508-6.218 4.699-6.218 4.699z"></path>
<path fill="#fc6d26" style="fill: var(--color7, #fc6d26)" d="M6.564 15.017c-1.769-1.327-3.809-2.247-5.974-2.693l-0.044 0.117c-0.64 1.672-0.719 3.506-0.225 5.226s1.533 3.234 2.962 4.312l0.015 0.012 0.041 0.029 6.77 5.070c0 0 2.89-2.185 6.218-4.699l-9.763-7.374z"></path>
</symbol>
<symbol id="linledin-grey_icon" viewBox="0 0 32 32">
<path fill="#bbc0cb" style="fill: var(--color1, #bbc0cb)" d="M1.575 0h28.85c0.875 0 1.575 0.7 1.575 1.575v28.85c0 0.875-0.7 1.575-1.575 1.575h-28.85c-0.875 0-1.575-0.7-1.575-1.575v-28.85c0-0.875 0.7-1.575 1.575-1.575z"></path>
<path fill="#fff" style="fill: var(--color2, #fff)" d="M11.719 23.431v-9.794h-3.031v9.794h3.031zM11.719 10.2c0-0.875-0.581-1.512-1.575-1.512-0.931 0-1.575 0.644-1.575 1.512 0 0.875 0.581 1.512 1.512 1.512 0.994 0.006 1.637-0.694 1.637-1.512zM16.612 23.431v-5.594c0-0.294 0-0.581 0.119-0.819 0.231-0.581 0.756-1.225 1.688-1.225 1.225 0 1.925 0.7 1.925 2.038v5.594h3.031v-5.712c0-3.088-1.631-4.488-3.788-4.488-1.806 0-2.563 0.994-3.031 1.688v-1.281h-3.031c0.056 0.931 0 9.85 0 9.85h3.087v-0.050z"></path>
</symbol>
<symbol id="linledin_icon" viewBox="0 0 32 32">
<path fill="#346da6" style="fill: var(--color9, #346da6)" d="M1.575 0h28.85c0.875 0 1.575 0.7 1.575 1.575v28.85c0 0.875-0.7 1.575-1.575 1.575h-28.85c-0.875 0-1.575-0.7-1.575-1.575v-28.85c0-0.875 0.7-1.575 1.575-1.575z"></path>
<path fill="#fff" style="fill: var(--color2, #fff)" d="M11.719 23.431v-9.794h-3.031v9.794h3.031zM11.719 10.2c0-0.875-0.581-1.512-1.575-1.512-0.931 0-1.575 0.644-1.575 1.512 0 0.875 0.581 1.512 1.512 1.512 0.994 0.006 1.637-0.694 1.637-1.512zM16.612 23.431v-5.594c0-0.294 0-0.581 0.119-0.819 0.231-0.581 0.756-1.225 1.688-1.225 1.225 0 1.925 0.7 1.925 2.038v5.594h3.031v-5.712c0-3.088-1.631-4.488-3.788-4.488-1.806 0-2.563 0.994-3.031 1.688v-1.281h-3.031c0.056 0.931 0 9.85 0 9.85h3.087v-0.050z"></path>
</symbol>
<symbol id="telegram_icon" viewBox="0 0 32 32">
<path fill="#000" style="fill: var(--color10, #000)" d="M16 32c8.837 0 16-7.163 16-16s-7.163-16-16-16c-8.837 0-16 7.163-16 16s7.163 16 16 16z"></path>
<path fill="#fff" style="fill: var(--color2, #fff)" d="M7.234 15.827c4.663-2.025 7.767-3.37 9.326-4.023 4.436-1.852 5.369-2.172 5.968-2.185 0.133 0 0.426 0.027 0.626 0.187 0.16 0.133 0.2 0.306 0.226 0.44s0.053 0.413 0.027 0.626c-0.24 2.531-1.279 8.673-1.812 11.497-0.227 1.199-0.666 1.599-1.092 1.639-0.933 0.080-1.639-0.613-2.531-1.199-1.412-0.919-2.198-1.492-3.57-2.398-1.585-1.039-0.559-1.612 0.346-2.544 0.24-0.24 4.33-3.97 4.41-4.303 0.013-0.040 0.013-0.2-0.080-0.28s-0.227-0.053-0.333-0.027c-0.147 0.027-2.385 1.519-6.741 4.463-0.639 0.44-1.212 0.653-1.732 0.639-0.573-0.013-1.665-0.32-2.491-0.586-0.999-0.32-1.798-0.493-1.732-1.052 0.040-0.293 0.44-0.586 1.186-0.893z"></path>
</symbol>
<symbol id="vk-grey_icon" viewBox="0 0 32 32">
<path fill="#bbc0cb" style="fill: var(--color1, #bbc0cb)" d="M4.931 0h22.138c2.723 0 4.931 2.208 4.931 4.931v22.138c0 2.723-2.208 4.931-4.931 4.931h-22.138c-2.723 0-4.931-2.208-4.931-4.931v-22.138c0-2.723 2.208-4.931 4.931-4.931z"></path>
<path fill="#fff" style="fill: var(--color2, #fff)" d="M15.732 22.401h1.309c0 0 0.395-0.044 0.597-0.261 0.186-0.2 0.18-0.575 0.18-0.575s-0.026-1.756 0.789-2.015c0.804-0.255 1.836 1.697 2.929 2.448 0.827 0.568 1.456 0.444 1.456 0.444l2.925-0.041c0 0 1.53-0.094 0.804-1.297-0.059-0.098-0.423-0.89-2.175-2.516-1.834-1.702-1.588-1.427 0.621-4.371 1.345-1.793 1.883-2.888 1.715-3.356-0.16-0.447-1.15-0.329-1.15-0.329l-3.293 0.020c0 0-0.244-0.033-0.425 0.075-0.177 0.106-0.291 0.353-0.291 0.353s-0.521 1.387-1.216 2.568c-1.466 2.49-2.053 2.622-2.292 2.467-0.558-0.36-0.418-1.447-0.418-2.22 0-2.413 0.366-3.419-0.713-3.68-0.358-0.086-0.622-0.143-1.537-0.153-1.175-0.012-2.169 0.004-2.732 0.28-0.375 0.183-0.664 0.592-0.488 0.616 0.218 0.029 0.71 0.133 0.972 0.489 0.338 0.459 0.326 1.49 0.326 1.49s0.194 2.84-0.453 3.193c-0.444 0.242-1.053-0.252-2.36-2.511-0.67-1.157-1.175-2.436-1.175-2.436s-0.097-0.239-0.271-0.367c-0.211-0.155-0.506-0.204-0.506-0.204l-3.129 0.020c0 0-0.47 0.013-0.642 0.217-0.154 0.182-0.012 0.557-0.012 0.557s2.45 5.731 5.224 8.62c2.544 2.648 5.432 2.475 5.432 2.475z"></path>
</symbol>
<symbol id="vk_icon" viewBox="0 0 32 32">
<path fill="#4c75a3" style="fill: var(--color11, #4c75a3)" d="M4.931 0h22.138c2.723 0 4.931 2.208 4.931 4.931v22.138c0 2.723-2.208 4.931-4.931 4.931h-22.138c-2.723 0-4.931-2.208-4.931-4.931v-22.138c0-2.723 2.208-4.931 4.931-4.931z"></path>
<path fill="#fff" style="fill: var(--color2, #fff)" d="M15.732 22.401h1.309c0 0 0.395-0.044 0.597-0.261 0.186-0.2 0.18-0.575 0.18-0.575s-0.026-1.756 0.789-2.015c0.804-0.255 1.836 1.697 2.929 2.448 0.827 0.568 1.456 0.444 1.456 0.444l2.925-0.041c0 0 1.53-0.094 0.804-1.297-0.059-0.098-0.423-0.89-2.175-2.516-1.834-1.702-1.588-1.427 0.621-4.371 1.345-1.793 1.883-2.888 1.715-3.356-0.16-0.447-1.15-0.329-1.15-0.329l-3.293 0.020c0 0-0.244-0.033-0.425 0.075-0.177 0.106-0.291 0.353-0.291 0.353s-0.521 1.387-1.216 2.568c-1.466 2.49-2.053 2.622-2.292 2.467-0.558-0.36-0.418-1.447-0.418-2.22 0-2.413 0.366-3.419-0.713-3.68-0.358-0.086-0.622-0.143-1.537-0.153-1.175-0.012-2.169 0.004-2.732 0.28-0.375 0.184-0.664 0.592-0.488 0.616 0.218 0.029 0.71 0.133 0.972 0.489 0.338 0.459 0.326 1.49 0.326 1.49s0.194 2.84-0.453 3.193c-0.444 0.242-1.053-0.252-2.36-2.511-0.67-1.157-1.175-2.436-1.175-2.436s-0.097-0.239-0.271-0.367c-0.211-0.155-0.506-0.204-0.506-0.204l-3.129 0.020c0 0-0.47 0.013-0.642 0.217-0.154 0.182-0.012 0.557-0.012 0.557s2.45 5.731 5.224 8.62c2.544 2.648 5.432 2.475 5.432 2.475z"></path>
</symbol>
<symbol id="youtube-grey_icon" viewBox="0 0 75 32">
<path fill="#bbc0cb" style="fill: var(--color1, #bbc0cb)" d="M27.867 25.733h-2.827v-1.653c-1.067 1.253-2 1.867-2.973 1.867-0.88 0-1.467-0.4-1.787-1.16-0.16-0.467-0.293-1.173-0.293-2.227v-12.027h2.827v12.347c0.067 0.4 0.24 0.56 0.6 0.56 0.533 0 1.040-0.493 1.64-1.333v-11.573h2.827v15.2h-0.013zM17.867 15.493c0-1.627-0.307-2.84-0.88-3.6-0.747-1.067-1.933-1.467-3.133-1.467-1.36 0-2.4 0.4-3.133 1.467-0.587 0.76-0.893 2-0.893 3.6v5.427c0 1.6 0.267 2.72 0.853 3.467 0.747 1.067 1.973 1.6 3.16 1.6 1.2 0 2.427-0.533 3.2-1.6 0.533-0.747 0.8-1.867 0.8-3.467v-5.453l0.027 0.027zM15.067 21.227c0.133 1.507-0.333 2.267-1.2 2.267-0.88 0-1.333-0.76-1.2-2.267v-6.027c-0.133-1.507 0.32-2.213 1.2-2.213 0.867 0 1.333 0.707 1.2 2.213v6.027zM6.707 17.467v8.267h-2.973v-8.267c0 0-3.107-10.187-3.733-12.080h3.133l2.093 7.947 2.080-7.933h3.12l-3.733 12.053z"></path>
<path fill="#bbc0cb" style="fill: var(--color1, #bbc0cb)" d="M56.987 12.934c-0.44 0-0.933 0.267-1.4 0.693v9.147c0.44 0.453 0.933 0.667 1.387 0.667 0.8 0 1.133-0.56 1.133-2.067v-6.48c0-1.507-0.36-1.947-1.147-1.947l0.027-0.013zM68.107 14.76c0-1.4-0.36-1.813-1.253-1.813s-1.28 0.4-1.28 1.8v1.667h2.533v-1.64z"></path>
<path fill="#bbc0cb" style="fill: var(--color1, #bbc0cb)" d="M74.227 7.040c0 0-0.44-3.067-1.773-4.44-1.693-1.8-3.6-1.8-4.453-1.893-6.227-0.44-15.573-0.44-15.573-0.44h-0.027c0 0-9.333 0-15.56 0.44-0.867 0.107-2.773 0.107-4.467 1.893-1.333 1.36-1.76 4.44-1.76 4.44s-0.453 3.627-0.453 7.253v3.4c0 3.627 0.453 7.24 0.453 7.24s0.427 3.093 1.76 4.453c1.693 1.787 3.92 1.733 4.907 1.907 3.56 0.347 15.133 0.453 15.133 0.453s9.373 0 15.6-0.453c0.867-0.107 2.76-0.107 4.453-1.893 1.333-1.36 1.773-4.453 1.773-4.453s0.427-3.613 0.427-7.253v-3.4c0-3.627-0.44-7.253-0.44-7.253zM39.933 25.734h-2.973v-17.333h-3.133v-2.827h9.387v2.827h-3.267v17.333h-0.013zM50.667 25.734h-2.827v-1.653c-1.067 1.253-2 1.867-2.973 1.867-0.88 0-1.467-0.4-1.787-1.16-0.16-0.467-0.293-1.173-0.293-2.227v-11.893h2.827v12.227c0.067 0.4 0.24 0.56 0.6 0.56 0.533 0 1.040-0.493 1.64-1.333v-11.453h2.813v15.067zM60.933 21.227c0 1.387-0.093 2.373-0.267 3.013-0.373 1.12-1.16 1.693-2.227 1.693-0.96 0-1.947-0.587-2.853-1.707v1.52h-2.693v-20.173h2.667v6.56c0.88-1.067 1.867-1.693 2.867-1.693 1.067 0 1.787 0.627 2.133 1.733 0.2 0.627 0.373 1.6 0.373 3.027v6.027zM66.88 23.454c0.667 0 1.067-0.373 1.2-1.107 0.027-0.133 0.027-0.8 0.027-1.893h2.827v0.427c0 0.88-0.067 1.507-0.093 1.773-0.093 0.613-0.307 1.16-0.627 1.64-0.747 1.093-1.867 1.627-3.267 1.627s-2.467-0.507-3.253-1.547c-0.573-0.76-0.933-1.867-0.933-3.467v-5.28c0-1.6 0.333-2.853 0.907-3.627 0.773-1.027 1.867-1.573 3.227-1.573s2.427 0.533 3.2 1.573c0.533 0.773 0.867 1.947 0.867 3.56v3.107h-5.36v2.693c0 1.4 0.4 2.093 1.307 2.093h-0.027z"></path>
</symbol>
<symbol id="youtube_icon" viewBox="0 0 75 32">
<path fill="#111" style="fill: var(--color12, #111)" d="M27.867 25.733h-2.827v-1.653c-1.067 1.253-2 1.867-2.973 1.867-0.88 0-1.467-0.4-1.787-1.16-0.16-0.467-0.293-1.173-0.293-2.227v-12.027h2.827v12.347c0.067 0.4 0.24 0.56 0.6 0.56 0.533 0 1.040-0.493 1.64-1.333v-11.573h2.827v15.2h-0.013zM17.867 15.493c0-1.627-0.307-2.84-0.88-3.6-0.747-1.067-1.933-1.467-3.133-1.467-1.36 0-2.4 0.4-3.133 1.467-0.587 0.76-0.893 2-0.893 3.6v5.427c0 1.6 0.267 2.72 0.853 3.467 0.747 1.067 1.973 1.6 3.16 1.6 1.2 0 2.427-0.533 3.2-1.6 0.533-0.747 0.8-1.867 0.8-3.467v-5.453l0.027 0.027zM15.067 21.227c0.133 1.507-0.333 2.267-1.2 2.267-0.88 0-1.333-0.76-1.2-2.267v-6.027c-0.133-1.507 0.32-2.213 1.2-2.213 0.867 0 1.333 0.707 1.2 2.213v6.027zM6.707 17.467v8.267h-2.973v-8.267c0 0-3.107-10.187-3.733-12.080h3.133l2.093 7.947 2.080-7.933h3.12l-3.733 12.053z"></path>
<path fill="#e62117" style="fill: var(--color13, #e62117)" d="M56.987 12.934c-0.44 0-0.933 0.267-1.4 0.693v9.147c0.44 0.453 0.933 0.667 1.387 0.667 0.8 0 1.133-0.56 1.133-2.067v-6.48c0-1.507-0.36-1.947-1.147-1.947l0.027-0.013zM68.107 14.76c0-1.4-0.36-1.813-1.253-1.813s-1.28 0.4-1.28 1.8v1.667h2.533v-1.64z"></path>
<path fill="#e62117" style="fill: var(--color13, #e62117)" d="M74.227 7.040c0 0-0.44-3.067-1.773-4.44-1.693-1.8-3.6-1.8-4.453-1.893-6.227-0.44-15.573-0.44-15.573-0.44h-0.027c0 0-9.333 0-15.56 0.44-0.867 0.107-2.773 0.107-4.467 1.893-1.333 1.36-1.76 4.44-1.76 4.44s-0.453 3.627-0.453 7.253v3.4c0 3.627 0.453 7.24 0.453 7.24s0.427 3.093 1.76 4.453c1.693 1.787 3.92 1.733 4.907 1.907 3.56 0.347 15.133 0.453 15.133 0.453s9.373 0 15.6-0.453c0.867-0.107 2.76-0.107 4.453-1.893 1.333-1.36 1.773-4.453 1.773-4.453s0.427-3.613 0.427-7.253v-3.4c0-3.627-0.44-7.253-0.44-7.253zM39.933 25.734h-2.973v-17.333h-3.133v-2.827h9.387v2.827h-3.267v17.333h-0.013zM50.667 25.734h-2.827v-1.653c-1.067 1.253-2 1.867-2.973 1.867-0.88 0-1.467-0.4-1.787-1.16-0.16-0.467-0.293-1.173-0.293-2.227v-11.893h2.827v12.227c0.067 0.4 0.24 0.56 0.6 0.56 0.533 0 1.040-0.493 1.64-1.333v-11.453h2.813v15.067zM60.933 21.227c0 1.387-0.093 2.373-0.267 3.013-0.373 1.12-1.16 1.693-2.227 1.693-0.96 0-1.947-0.587-2.853-1.707v1.52h-2.693v-20.173h2.667v6.56c0.88-1.067 1.867-1.693 2.867-1.693 1.067 0 1.787 0.627 2.133 1.733 0.2 0.627 0.373 1.6 0.373 3.027v6.027zM66.88 23.454c0.667 0 1.067-0.373 1.2-1.107 0.027-0.133 0.027-0.8 0.027-1.893h2.827v0.427c0 0.88-0.067 1.507-0.093 1.773-0.093 0.613-0.307 1.16-0.627 1.64-0.747 1.093-1.867 1.627-3.267 1.627s-2.467-0.507-3.253-1.547c-0.573-0.76-0.933-1.867-0.933-3.467v-5.28c0-1.6 0.333-2.853 0.907-3.627 0.773-1.027 1.867-1.573 3.227-1.573s2.427 0.533 3.2 1.573c0.533 0.773 0.867 1.947 0.867 3.56v3.107h-5.36v2.693c0 1.4 0.4 2.093 1.307 2.093h-0.027z"></path>
</symbol>
</defs>
</svg>
